<?xml version="1.0" standalone="no"?>
<!DOCTYPE svg PUBLIC "-//W3C//DTD SVG 20010904//EN"
 "http://www.w3.org/TR/2001/REC-SVG-20010904/DTD/svg10.dtd">
<svg version="1.0" xmlns="http://www.w3.org/2000/svg"
 width="1026.000000pt" height="1349.000000pt" viewBox="0 0 1026.000000 1349.000000"
 preserveAspectRatio="xMidYMid meet">

<g transform="translate(0.000000,1349.000000) scale(0.100000,-0.100000)"
fill="#000000" stroke="none">
<path d="M2660 10835 l-2475 -2475 524 -524 c457 -457 526 -523 537 -508 6 9
206 355 444 767 238 413 549 950 690 1195 141 245 396 686 566 980 170 294
498 863 729 1264 232 400 424 728 429 728 7 0 347 -196 1661 -955 493 -284
1351 -779 2620 -1512 336 -194 621 -358 635 -365 14 -6 -850 864 -1920 1934
-1070 1070 -1949 1946 -1955 1946 -6 0 -1124 -1114 -2485 -2475z"/>
<path d="M3896 11623 c-141 -245 -255 -448 -252 -450 3 -3 110 -34 238 -68
421 -113 1271 -341 1978 -530 382 -103 904 -242 1159 -311 255 -68 467 -124
470 -124 3 0 -60 38 -139 83 -80 46 -363 210 -630 364 -267 154 -939 542
-1495 863 -555 320 -1024 591 -1041 601 l-30 18 -258 -446z"/>
<path d="M3501 10658 c-58 -216 -107 -399 -109 -405 -3 -10 324 -13 1614 -13
889 0 1615 2 1613 4 -3 4 -483 133 -2339 630 -195 52 -422 113 -505 135 -82
23 -155 41 -160 41 -6 0 -57 -177 -114 -392z"/>
<path d="M3254 10511 c-132 -229 -322 -557 -1403 -2430 -227 -392 -411 -715
-409 -716 9 -8 894 -517 902 -518 10 -2 35 89 351 1268 119 446 273 1019 341
1275 322 1200 365 1362 362 1365 -2 2 -67 -108 -144 -244z"/>
<path d="M3360 9805 c0 -190 3 -345 6 -345 3 0 224 59 492 131 268 72 730 196
1027 275 643 173 840 225 960 258 l90 25 -1287 0 -1288 1 0 -345z"/>
<path d="M6311 10043 c16 -60 92 -342 169 -628 76 -286 180 -673 230 -860 50
-187 123 -457 161 -600 38 -143 71 -264 73 -270 3 -5 5 547 5 1228 l1 1237
-334 0 -334 0 29 -107z"/>
<path d="M7041 8508 c0 -913 5 -1612 9 -1598 5 14 122 448 260 965 138 517
316 1182 396 1477 79 295 144 543 144 551 0 9 -28 21 -77 35 -219 60 -718 192
-725 192 -4 0 -8 -730 -7 -1622z"/>
<path d="M7906 9637 c-32 -122 -76 -285 -97 -362 -20 -77 -106 -394 -189 -705
-231 -863 -409 -1528 -546 -2039 -69 -255 -123 -465 -122 -467 2 -1 44 68 94
154 50 86 304 526 564 977 1084 1877 1240 2148 1240 2155 0 8 -865 510 -878
510 -4 0 -33 -100 -66 -223z"/>
<path d="M3078 9082 c-536 -1999 -609 -2274 -606 -2277 5 -5 792 -214 795
-211 2 1 2 719 1 1594 l-3 1592 -187 -698z"/>
<path d="M8929 9188 c-115 -201 -418 -725 -1329 -2303 -213 -368 -582 -1007
-820 -1420 -238 -412 -464 -804 -502 -870 l-69 -120 1945 1945 1946 1945 -517
517 c-285 285 -521 518 -524 518 -4 0 -62 -96 -130 -212z"/>
<path d="M3361 7868 l-1 -1308 350 0 c193 0 350 2 350 5 0 3 -43 166 -96 363
-297 1110 -411 1536 -505 1882 -45 168 -85 319 -89 335 -5 17 -8 -558 -9
-1277z"/>
<path d="M3194 5354 l1950 -1945 523 523 c287 287 521 523 520 524 -1 1 -220
127 -487 281 -705 407 -1700 981 -1885 1088 -194 112 -1317 761 -2032 1173
-287 166 -526 302 -530 302 -4 -1 869 -876 1941 -1946z"/>
<path d="M6825 7205 c-66 -18 -334 -90 -595 -160 -261 -70 -599 -160 -750
-201 -151 -40 -448 -120 -660 -176 l-385 -103 1254 -3 c690 -1 1256 0 1258 1
2 2 2 155 1 339 l-3 335 -120 -32z"/>
<path d="M3010 6460 c228 -132 523 -303 1875 -1083 286 -165 685 -396 888
-513 l367 -212 54 91 c201 344 467 809 464 812 -2 2 -199 56 -438 120 -239 64
-527 141 -640 171 -113 31 -329 88 -480 129 -151 40 -529 142 -840 225 -311
83 -764 205 -1007 270 -243 65 -452 121 -465 125 -13 4 87 -57 222 -135z"/>
<path d="M3945 6409 c121 -33 398 -107 615 -165 217 -58 451 -121 520 -139 69
-19 276 -74 460 -124 184 -49 523 -140 753 -201 230 -62 420 -110 423 -107 5
5 213 775 214 790 0 4 -721 7 -1602 6 l-1603 0 220 -60z"/>
<path d="M170 2030 l0 -630 393 0 c541 0 690 16 825 84 239 121 356 417 290
731 -48 229 -240 389 -516 430 -74 11 -203 15 -544 15 l-448 0 0 -630z m875
401 c117 -14 189 -44 251 -105 77 -78 112 -209 93 -356 -22 -176 -112 -266
-313 -313 -33 -7 -152 -12 -331 -12 l-280 0 -3 385 c-1 212 0 391 3 397 5 16
453 18 580 4z"/>
<path d="M2416 2638 c-22 -35 -696 -1230 -696 -1234 0 -2 65 -4 144 -4 l145 0
73 140 73 140 399 -3 398 -2 76 -137 76 -138 163 0 164 0 -12 23 c-11 20 -335
585 -595 1037 l-112 195 -140 3 c-137 2 -142 2 -156 -20z m330 -476 c72 -136
129 -250 127 -254 -7 -13 -533 -10 -533 3 0 12 263 498 270 498 3 1 64 -111
136 -247z"/>
<path d="M3580 2030 l0 -631 143 3 142 3 3 268 2 267 455 0 455 0 0 -270 0
-271 148 3 147 3 0 625 0 625 -147 3 -148 3 0 -246 0 -245 -455 0 -455 0 0
245 0 245 -145 0 -145 0 0 -630z"/>
<path d="M5369 2656 c-2 -2 -3 -286 -1 -630 l2 -626 645 0 645 0 0 120 0 120
-500 0 -500 0 0 155 0 155 290 0 291 0 -3 108 -3 107 -287 3 -288 2 0 140 0
140 495 0 495 0 0 105 0 105 -638 0 c-351 0 -641 -2 -643 -4z"/>
<path d="M6892 2033 l3 -628 130 0 130 0 0 432 0 432 40 -39 c22 -21 252 -217
510 -434 l470 -396 98 0 97 0 0 630 0 630 -131 0 -131 0 4 -435 3 -434 -50 49
c-27 27 -257 222 -510 434 l-460 386 -103 0 -102 0 2 -627z"/>
<path d="M8753 2650 c-102 -21 -152 -69 -173 -166 -17 -79 -8 -897 10 -948 20
-55 63 -93 128 -113 51 -16 110 -18 597 -18 610 0 623 1 683 70 50 56 55 87
59 383 l5 272 -381 0 -381 0 0 -105 0 -105 235 0 235 0 0 -140 0 -140 -455 0
-455 0 2 398 3 397 453 3 452 2 0 -70 c0 -58 3 -70 16 -70 9 0 73 10 141 22
86 15 127 27 131 37 9 24 -14 157 -35 198 -15 28 -35 46 -78 68 l-59 30 -545
2 c-300 1 -565 -3 -588 -7z"/>
<path d="M1110 780 c0 -88 -4 -160 -9 -160 -4 0 -55 70 -112 155 l-104 154
-82 1 -83 0 0 -210 0 -210 50 0 50 0 0 150 c0 83 3 150 8 150 4 0 52 -67 107
-148 l100 -147 83 -3 82 -3 0 216 0 215 -45 0 -45 0 0 -160z"/>
<path d="M2640 780 c0 -88 -4 -160 -9 -160 -4 0 -55 70 -112 155 l-104 154
-82 1 -83 0 0 -210 0 -210 50 0 50 0 0 150 c0 83 3 150 8 150 4 0 52 -67 107
-148 l100 -147 83 -3 82 -3 0 216 0 215 -45 0 -45 0 0 -160z"/>
<path d="M5280 780 c0 -88 -4 -160 -9 -160 -4 0 -55 70 -112 155 l-104 154
-82 1 -83 0 0 -210 0 -210 50 0 50 0 0 150 c0 83 3 150 8 150 4 0 52 -67 107
-148 l100 -147 83 -3 82 -3 0 216 0 215 -45 0 -45 0 0 -160z"/>
<path d="M9990 780 c0 -88 -4 -160 -9 -160 -4 0 -55 70 -112 155 l-104 154
-82 1 -83 0 0 -210 0 -210 50 0 50 0 0 150 c0 83 3 150 8 150 4 0 52 -67 107
-148 l100 -147 83 -3 82 -3 0 216 0 215 -45 0 -45 0 0 -160z"/>
<path d="M170 715 l0 -215 190 0 190 0 0 45 0 45 -145 0 -145 0 0 45 0 45 140
0 140 0 0 40 0 40 -140 0 -140 0 0 40 0 40 145 0 145 0 0 45 0 45 -190 0 -190
0 0 -215z"/>
<path d="M1980 720 l0 -210 50 0 50 0 0 210 0 210 -50 0 -50 0 0 -210z"/>
<path d="M2900 715 l0 -215 190 0 190 0 0 45 0 45 -145 0 -145 0 0 45 0 45
140 0 140 0 0 40 0 40 -140 0 -140 0 0 40 0 40 145 0 145 0 0 45 0 45 -190 0
-190 0 0 -215z"/>
<path d="M3450 715 l0 -215 190 0 190 0 0 45 0 45 -145 0 -145 0 0 45 0 45
140 0 140 0 0 40 0 40 -140 0 -140 0 0 40 0 40 145 0 145 0 0 45 0 45 -190 0
-190 0 0 -215z"/>
<path d="M4610 720 l0 -210 50 0 50 0 0 210 0 210 -50 0 -50 0 0 -210z"/>
<path d="M7560 715 l0 -215 190 0 190 0 0 45 0 45 -145 0 -145 0 0 45 0 45
140 0 140 0 0 40 0 40 -140 0 -140 0 0 40 0 40 145 0 145 0 0 45 0 45 -190 0
-190 0 0 -215z"/>
<path d="M8180 920 c-58 -14 -72 -42 -68 -132 5 -112 5 -112 184 -116 142 -3
145 -4 156 -27 20 -44 -2 -55 -112 -55 -107 0 -130 5 -130 26 0 10 -14 14 -51
14 l-52 0 6 -42 c10 -78 52 -92 261 -86 127 3 128 3 153 32 23 27 25 36 21
103 -5 112 -13 117 -191 123 l-142 5 -3 29 c-2 16 2 32 10 37 7 5 55 9 105 9
82 0 94 -2 105 -20 10 -16 24 -20 62 -20 l49 0 -6 41 c-10 76 -27 84 -185 86
-75 1 -153 -2 -172 -7z"/>
<path d="M8730 720 l0 -210 50 0 50 0 0 210 0 210 -50 0 -50 0 0 -210z"/>
<path d="M1449 913 c-15 -2 -37 -15 -50 -29 -23 -24 -24 -34 -27 -162 -3 -155
3 -177 58 -204 47 -24 295 -26 339 -3 35 18 41 37 41 148 l0 87 -115 0 -115 0
0 -40 0 -40 70 0 70 0 0 -28 c0 -46 -15 -52 -127 -52 -98 0 -103 1 -119 25
-12 19 -15 43 -12 106 4 105 10 109 140 109 87 0 99 -2 110 -20 10 -15 24 -20
55 -20 l43 0 0 38 c0 28 -7 45 -26 63 -24 23 -32 24 -167 25 -78 1 -154 0
-168 -3z"/>
<path d="M4000 715 l0 -205 50 0 50 0 0 50 0 50 104 0 c115 0 123 -4 133 -64
5 -35 7 -36 49 -36 l44 0 0 53 c0 44 -4 58 -24 76 l-25 23 27 23 c25 21 27 30
27 93 0 78 -21 121 -66 133 -13 4 -102 7 -196 8 l-173 1 0 -205z m314 99 c19
-18 21 -85 4 -102 -8 -8 -48 -12 -115 -12 l-103 0 0 65 0 65 99 0 c77 0 103
-4 115 -16z"/>
<path d="M5609 913 c-15 -2 -37 -15 -50 -29 -23 -24 -24 -34 -27 -162 -3 -155
3 -177 58 -204 47 -24 295 -26 339 -3 35 18 41 37 41 148 l0 87 -115 0 -115 0
0 -40 0 -40 70 0 70 0 0 -28 c0 -46 -15 -52 -127 -52 -98 0 -103 1 -119 25
-12 19 -15 43 -12 106 4 105 10 109 140 109 87 0 99 -2 110 -20 10 -15 24 -20
55 -20 l43 0 0 38 c0 28 -7 45 -26 63 -24 23 -32 24 -167 25 -78 1 -154 0
-168 -3z"/>
<path d="M6930 710 l0 -210 184 0 c104 0 196 5 214 11 51 18 67 64 67 199 0
199 -15 210 -285 210 l-180 0 0 -210z m344 104 c12 -12 16 -37 16 -104 0 -120
0 -120 -151 -120 l-119 0 0 120 0 120 119 0 c95 0 123 -3 135 -16z"/>
<path d="M9079 913 c-15 -2 -37 -15 -50 -29 -23 -24 -24 -34 -27 -162 -3 -155
3 -177 58 -204 47 -24 295 -26 339 -3 35 18 41 37 41 148 l0 87 -115 0 -115 0
0 -40 0 -40 70 0 70 0 0 -28 c0 -46 -15 -52 -127 -52 -98 0 -103 1 -119 25
-12 19 -15 43 -12 106 4 105 10 109 140 109 87 0 99 -2 110 -20 10 -15 24 -20
55 -20 l43 0 0 38 c0 28 -7 45 -26 63 -24 23 -32 24 -167 25 -78 1 -154 0
-168 -3z"/>
</g>
</svg>
